<svg width="82" height="32" viewBox="0 0 82 32" fill="none" xmlns="http://www.w3.org/2000/svg">
<g clip-path="url(#clip0_1452_51807)">
<path d="M70.565 0C64.704 0 59.9521 4.76736 59.9521 10.6488C59.9521 16.5294 64.7041 21.2962 70.565 21.2962C76.4266 21.2962 81.1784 16.5293 81.1779 10.6488C81.1781 4.76781 76.4261 0 70.565 0ZM70.565 16.2779C67.4662 16.2779 64.9542 13.7571 64.9542 10.6478C64.9538 7.53865 67.4662 5.01822 70.565 5.01822C73.6639 5.01822 76.1763 7.53899 76.1763 10.6483C76.1763 13.7575 73.6639 16.2779 70.565 16.2779Z" fill="#227B82"/>
<path d="M27.8675 16.1689C27.8675 23.6622 21.8134 29.7362 14.345 29.7362C6.87699 29.7362 0.823242 23.6623 0.823242 16.1689C0.823242 8.67649 6.87699 2.60254 14.345 2.60254C21.8134 2.60243 27.8675 8.67649 27.8675 16.1689Z" fill="#227B82"/>
<path d="M14.9034 20.3578L14.9184 20.4458C15.056 21.2604 15.6942 21.6845 16.6751 21.6032L17.829 21.4565L27.2276 20.307C27.8013 18.4935 28.0114 16.5276 27.7654 14.5181C26.8582 7.09695 20.1368 1.81063 12.749 2.69867L14.7505 19.1282L14.9034 20.3578Z" fill="#EFB31D"/>
<path d="M15.8112 28.1353C11.3037 28.3182 9.20578 26.4468 8.62452 21.7197L6.58568 5.05737C2.63064 7.83926 0.293136 12.6756 0.924715 17.8242C1.83137 25.2576 8.58229 30.5453 15.9916 29.6355C18.1773 29.3666 20.1797 28.5884 21.886 27.4307L16.8854 28.0482C16.5582 28.0849 16.188 28.1353 15.8112 28.1353Z" fill="#BFD042"/>
<path d="M65.6628 24.9557L65.6071 24.6923L64.0435 12.5109C63.8817 6.77179 59.1945 2.16919 53.4352 2.16919C47.5742 2.16919 42.8223 6.93655 42.8223 12.8176C42.8223 18.6987 47.5743 23.4655 53.4352 23.4655C55.8338 23.4655 58.0463 22.6668 59.8237 21.3207L59.8235 21.3211L60.156 24.0226L60.2769 25.0283L60.2845 25.0973C60.3335 25.7698 59.9158 26.2328 59.1166 26.3595L58.1845 26.4785L50.5309 27.4224C51.832 29.5355 53.8252 31.1491 56.1457 31.9999L61.085 31.357C64.6871 30.6079 66.3786 28.9353 65.6628 24.9557ZM53.4284 18.389C50.3291 18.389 47.8172 15.8682 47.8172 12.7591C47.8172 9.64992 50.3296 7.12959 53.4284 7.12959C56.5273 7.12914 59.0397 9.64992 59.0392 12.7591C59.0392 15.8682 56.5273 18.389 53.4284 18.389Z" fill="#227B82"/>
<path d="M36.2565 4.38867C30.3952 4.38867 25.6436 9.15648 25.6436 15.0375C25.6436 20.9182 30.3952 25.6854 36.2565 25.6859C42.1177 25.6854 46.8697 20.9181 46.8697 15.0375C46.8696 9.15648 42.1177 4.38867 36.2565 4.38867ZM36.2024 20.5113C33.1036 20.5113 30.5913 17.9906 30.5913 14.8814C30.5913 11.7721 33.1037 9.25182 36.2024 9.25182C39.3012 9.25182 41.8132 11.7721 41.8132 14.8814C41.8132 17.9906 39.3012 20.5113 36.2024 20.5113Z" fill="#227B82"/>
</g>
<defs>
<clipPath id="clip0_1452_51807">
<rect width="80.3556" height="32" fill="white" transform="translate(0.822266)"/>
</clipPath>
</defs>
</svg>
